<svg width="1376" height="153" viewBox="0 0 1376 153" fill="none" xmlns="http://www.w3.org/2000/svg">
<path d="M55.1928 149.078C44.7283 149.078 35.555 147.242 27.6728 143.57C19.7904 139.898 13.607 134.663 9.12224 127.862C4.77338 121.062 2.53101 112.97 2.39511 103.586H25.2265C25.3624 111.203 28.0125 117.662 33.1768 122.966C38.341 128.27 45.6117 130.922 54.9889 130.922C63.2789 130.922 69.7339 128.951 74.355 125.006C79.1111 120.926 81.4898 115.758 81.4898 109.502C81.4898 104.471 80.3342 100.391 78.0243 97.2623C75.8495 94.1341 72.7917 91.5503 68.851 89.5103C65.0453 87.4703 60.6288 85.6343 55.6005 84.0023C50.5721 82.3703 45.2719 80.6026 39.7 78.6983C28.692 75.0263 20.402 70.2661 14.8301 64.4183C9.394 58.5703 6.67602 50.8863 6.67602 41.3663C6.54007 33.3423 8.37474 26.3383 12.18 20.3543C16.1211 14.3703 21.5572 9.74634 28.4882 6.48234C35.555 3.08232 43.7771 1.38232 53.1542 1.38232C62.3955 1.38232 70.4818 3.08232 77.4127 6.48234C84.4794 9.88232 89.9834 14.6423 93.9247 20.7623C97.8655 26.7463 99.904 33.7503 100.04 41.7743H77.2089C77.2089 38.1023 76.2572 34.6343 74.355 31.3703C72.4521 27.9703 69.6664 25.1823 65.997 23.0063C62.3276 20.8303 57.8428 19.7423 52.5427 19.7423C45.7476 19.6063 40.1077 21.3063 35.623 24.8423C31.2741 28.3783 29.0997 33.2743 29.0997 39.5303C29.0997 45.1063 30.7305 49.3903 33.9922 52.3823C37.2538 55.3743 41.7385 57.8903 47.4464 59.9303C53.1542 61.8343 59.6775 64.0786 67.0163 66.6623C74.083 68.9746 80.4024 71.7623 85.9745 75.0263C91.5461 78.2903 95.9633 82.5743 99.2249 87.8783C102.622 93.1823 104.321 99.9144 104.321 108.074C104.321 115.283 102.487 122.015 98.8172 128.27C95.1479 134.39 89.6439 139.422 82.3052 143.366C74.9665 147.174 65.9289 149.078 55.1928 149.078Z" fill="#111010"/>
<path d="M158.789 146.63V21.3741H116.592V3.83008H222.391V21.3741H180.397V146.63H158.789Z" fill="#111010"/>
<path d="M296.022 149.078C285.829 149.078 276.587 147.106 268.298 143.162C260.144 139.082 253.62 132.894 248.728 124.598C243.971 116.302 241.593 105.762 241.593 92.9781V3.83008H263.201V93.1821C263.201 105.694 266.191 114.874 272.171 120.722C278.15 126.57 286.237 129.494 296.429 129.494C306.486 129.494 314.504 126.57 320.484 120.722C326.463 114.874 329.453 105.694 329.453 93.1821V3.83008H351.062V92.9781C351.062 105.762 348.547 116.302 343.519 124.598C338.627 132.894 331.967 139.082 323.542 143.162C315.251 147.106 306.078 149.078 296.022 149.078Z" fill="#111010"/>
<path d="M378.779 146.63V3.83008H425.053C441.769 3.83008 455.495 6.75406 466.231 12.6021C477.103 18.4501 485.122 26.7461 490.286 37.4901C495.586 48.0981 498.236 60.7461 498.236 75.4341C498.236 89.9863 495.586 102.634 490.286 113.378C485.122 123.986 477.103 132.214 466.231 138.062C455.495 143.774 441.769 146.63 425.053 146.63H378.779ZM400.387 128.27H424.238C437.148 128.27 447.341 126.162 454.816 121.946C462.426 117.73 467.862 111.678 471.124 103.79C474.521 95.9023 476.22 86.4501 476.22 75.4341C476.22 64.4181 474.521 54.8981 471.124 46.8741C467.862 38.8501 462.426 32.7301 454.816 28.5141C447.341 24.1621 437.148 21.9861 424.238 21.9861H400.387V128.27Z" fill="#111010"/>
<path d="M522.112 146.63V3.83008H543.721V146.63H522.112Z" fill="#111010"/>
<path d="M638.521 149.078C624.387 149.078 612.021 145.95 601.42 139.694C590.82 133.439 582.53 124.802 576.55 113.786C570.57 102.635 567.581 89.7826 567.581 75.2303C567.581 60.6783 570.57 47.8943 576.55 36.8783C582.53 25.7263 590.82 17.0223 601.42 10.7663C612.021 4.51033 624.387 1.38232 638.521 1.38232C652.657 1.38232 665.022 4.51033 675.622 10.7663C686.223 17.0223 694.447 25.7263 700.288 36.8783C706.27 47.8943 709.258 60.6783 709.258 75.2303C709.258 89.7826 706.27 102.635 700.288 113.786C694.447 124.802 686.223 133.439 675.622 139.694C665.022 145.95 652.657 149.078 638.521 149.078ZM638.521 129.698C648.306 129.698 656.798 127.523 664.003 123.17C671.341 118.818 677.049 112.562 681.126 104.402C685.203 96.2423 687.242 86.5186 687.242 75.2303C687.242 63.9421 685.203 54.2183 681.126 46.0583C677.049 37.8983 671.341 31.6423 664.003 27.2903C656.798 22.9383 648.306 20.7623 638.521 20.7623C628.736 20.7623 620.175 22.9383 612.836 27.2903C605.497 31.6423 599.789 37.8983 595.712 46.0583C591.771 54.2183 589.801 63.9421 589.801 75.2303C589.801 86.5186 591.771 96.2423 595.712 104.402C599.789 112.562 605.497 118.818 612.836 123.17C620.175 127.523 628.736 129.698 638.521 129.698Z" fill="#111010"/>
<path d="M784.689 146.63V3.83008H834.633C845.781 3.83008 855.018 5.73407 862.357 9.5421C869.696 13.2141 875.136 18.3141 878.665 24.8421C882.334 31.2341 884.169 38.5101 884.169 46.6701C884.169 54.4221 882.405 61.5621 878.869 68.0901C875.474 74.4823 870.103 79.5823 862.765 83.3901C855.426 87.1979 846.049 89.1021 834.633 89.1021H806.298V146.63H784.689ZM806.298 71.3541H833.614C843.806 71.3541 851.081 69.1783 855.426 64.8261C859.911 60.3381 862.153 54.2861 862.153 46.6701C862.153 38.7821 859.911 32.6621 855.426 28.3101C851.081 23.8221 843.806 21.5781 833.614 21.5781H806.298V71.3541Z" fill="#111010"/>
<path d="M971.373 149.078C957.237 149.078 944.872 145.95 934.272 139.694C923.672 133.439 915.384 124.802 909.402 113.786C903.42 102.635 900.433 89.7826 900.433 75.2303C900.433 60.6783 903.42 47.8943 909.402 36.8783C915.384 25.7263 923.672 17.0223 934.272 10.7663C944.872 4.51033 957.237 1.38232 971.373 1.38232C985.509 1.38232 997.874 4.51033 1008.47 10.7663C1019.07 17.0223 1027.3 25.7263 1033.14 36.8783C1039.12 47.8943 1042.11 60.6783 1042.11 75.2303C1042.11 89.7826 1039.12 102.635 1033.14 113.786C1027.3 124.802 1019.07 133.439 1008.47 139.694C997.874 145.95 985.509 149.078 971.373 149.078ZM971.373 129.698C981.158 129.698 989.65 127.523 996.855 123.17C1004.19 118.818 1009.9 112.562 1013.98 104.402C1018.06 96.2423 1020.09 86.5186 1020.09 75.2303C1020.09 63.9421 1018.06 54.2183 1013.98 46.0583C1009.9 37.8983 1004.19 31.6423 996.855 27.2903C989.65 22.9383 981.158 20.7623 971.373 20.7623C961.588 20.7623 953.027 22.9383 945.688 27.2903C938.349 31.6423 932.641 37.8983 928.564 46.0583C924.621 54.2183 922.653 63.9421 922.653 75.2303C922.653 86.5186 924.621 96.2423 928.564 104.402C932.641 112.562 938.349 118.818 945.688 123.17C953.027 127.523 961.588 129.698 971.373 129.698Z" fill="#111010"/>
<path d="M1066.18 146.63V3.83008H1087.79V129.494H1152.62V146.63H1066.18Z" fill="#111010"/>
<path d="M1175.87 146.63V3.83008H1197.48V129.494H1262.3V146.63H1175.87Z" fill="#111010"/>
<path d="M1301.54 146.63V93.9981L1254.25 3.83008H1278.71L1312.35 72.7821L1345.78 3.83008H1370.04L1323.15 93.9981V146.63H1301.54Z" fill="#111010"/>
</svg>
